<svg xmlns="http://www.w3.org/2000/svg">

  <symbol viewBox="0 0 24 24" id="arrow_right">
    <path d="M9.71 18.293a1 1 0 0 0 1.415 0l4.887-4.892a2 2 0 0 0 0-2.828l-4.89-4.89a1 1 0 0 0-1.415 1.414l4.186 4.185a1 1 0 0 1 0 1.415L9.71 16.879a1 1 0 0 0 0 1.414Z"/>
  </symbol>

  <symbol viewBox="0 0 800 800" id="arrow_left">
    <path d="M543.4 189.4c-13-13-34.1-13-47.1 0l-163 163.1c-26 26-26 68.2 0 94.3l163 163c13 13 34.1 13 47.1 0s13-34.1 0-47.1L404 423.1c-13-13-13-34.1 0-47.1l139.4-139.4c13-13.1 13-34.2 0-47.2z"/>
  </symbol>

  <symbol viewBox="0 0 24 24" id="gallery">
    <path d="M11.943 1.25h.114c2.309 0 4.118 0 5.53.19 1.444.194 2.584.6 3.479 1.494.895.895 1.3 2.035 1.494 3.48.19 1.411.19 3.22.19 5.529v.088c0 1.909 0 3.471-.104 4.743-.104 1.28-.317 2.347-.795 3.235-.21.391-.47.742-.785 1.057-.895.895-2.035 1.3-3.48 1.494-1.411.19-3.22.19-5.529.19h-.114c-2.309 0-4.118 0-5.53-.19-1.444-.194-2.584-.6-3.479-1.494-.793-.793-1.203-1.78-1.42-3.006-.215-1.203-.254-2.7-.262-4.558-.002-.473-.002-.973-.002-1.501v-.058c0-2.309 0-4.118.19-5.53.194-1.444.6-2.584 1.494-3.479.895-.895 2.035-1.3 3.48-1.494 1.411-.19 3.22-.19 5.529-.19Zm-5.33 1.676c-1.278.172-2.049.5-2.618 1.069-.57.57-.897 1.34-1.069 2.619-.174 1.3-.176 3.008-.176 5.386v.844l1.001-.877a2.3 2.3 0 0 1 3.141.105l4.29 4.29a2 2 0 0 0 2.564.222l.298-.21a3 3 0 0 1 3.732.225l2.83 2.547c.286-.598.455-1.384.545-2.493.098-1.205.099-2.707.099-4.653 0-2.378-.002-4.086-.176-5.386-.172-1.279-.5-2.05-1.069-2.62-.57-.569-1.34-.896-2.619-1.068-1.3-.174-3.008-.176-5.386-.176s-4.086.002-5.386.176Z"/>
  </symbol>

  <symbol viewBox="0 0 24 24" id="gallery2">
    <path d="M3 19c-.5 0-1-.2-1.4-.6S1 17.5 1 17V7c0-.6.2-1 .6-1.4S2.5 5 3 5h10c.6 0 1 .2 1.4.6.4.4.6.8.6 1.4v10c0 .6-.2 1-.6 1.4s-.8.6-1.4.6H3zm15-8c-.3 0-.5-.1-.7-.3-.2-.2-.3-.4-.3-.7V6c0-.3.1-.5.3-.7s.4-.3.7-.3h4c.3 0 .5.1.7.3.2.2.3.4.3.7v4c0 .3-.1.5-.3.7-.2.2-.4.3-.7.3h-4zm1-2h2V7h-2v2zM3 17h10V7H3v10zm1-2h8l-2.6-3.5L7.5 14l-1.4-1.8L4 15zm14 4c-.3 0-.5-.1-.7-.3-.2-.2-.3-.4-.3-.7v-4c0-.3.1-.5.3-.7s.4-.3.7-.3h4c.3 0 .5.1.7.3s.3.4.3.7v4c0 .3-.1.5-.3.7-.2.2-.4.3-.7.3h-4zm1-2h2v-2h-2v2zM3 17V7v10zm16-8V7v2zm0 8v-2 2z"/>
  </symbol>

  <symbol viewBox="0 0 24 24" id="home">
    <path d="M6 19h3v-6h6v6h3v-9l-6-4.5L6 10v9zm-2 2V9l8-6 8 6v12h-7v-6h-2v6H4z"/>
  </symbol>

  <symbol viewBox="0 0 24 24" id="arrow_down">
    <path d="m12 15.5 4.5-4.5-1.4-1.4-3.1 3.1-3.1-3.1L7.5 11l4.5 4.5zm0 6.5c-1.4 0-2.7-.3-3.9-.8-1.2-.5-2.3-1.2-3.2-2.1s-1.6-2-2.1-3.2S2 13.4 2 12s.3-2.7.8-3.9S4 5.8 4.9 4.9s2-1.6 3.2-2.1S10.6 2 12 2s2.7.3 3.9.8 2.3 1.2 3.2 2.1 1.6 2 2.1 3.2c.5 1.2.8 2.5.8 3.9s-.3 2.7-.8 3.9c-.5 1.2-1.2 2.3-2.1 3.2s-2 1.6-3.2 2.1c-1.2.5-2.5.8-3.9.8zm0-2c2.2 0 4.1-.8 5.7-2.3 1.5-1.6 2.3-3.4 2.3-5.7s-.8-4.1-2.3-5.7C16.1 4.8 14.2 4 12 4s-4.1.8-5.7 2.3S4 9.8 4 12s.8 4.1 2.3 5.7C7.9 19.2 9.8 20 12 20z"/>
  </symbol>

  <symbol style="enable-background:new 0 0 24 24" viewBox="0 0 24 24" id="up">
    <path d="M11 20V7.8l-5.6 5.6L4 12l8-8 8 8-1.4 1.4L13 7.8V20h-2z"/>
  </symbol>

  <symbol viewBox="0 0 220.5 91.3" id="my_logo">
    <path d="M45.4 4.7V47a4.7 4.7 0 0 1-4.9 4.4c-2.7 0-5-2-5-4.4V22.5l-8.1 15.9a5 5 0 0 1-4.7 2.7 5 5 0 0 1-4.6-2.7L9.9 22.5V47c0 2.4-2.3 4.4-5.1 4.4A4.6 4.6 0 0 1 0 47V4.7A4.7 4.7 0 0 1 4.9 0h.2a5.4 5.4 0 0 1 5 2.8l12.6 25.1L35.4 2.7A5 5 0 0 1 40.3 0a4.9 4.9 0 0 1 5.1 4.7ZM176.7 65.7v15.9c0 6.8-8.9 9.7-16.3 9.7-12.6 0-18.4-7.5-18.4-18.9V58.2c0-11.4 5.8-18.9 18.4-18.9 7.6 0 14.9 3.5 14.9 7.7a4.5 4.5 0 0 1-4.7 4.3h-.1a5.1 5.1 0 0 1-3.1-1.1l-.7-.4a11.6 11.6 0 0 0-6-1.7c-6.4 0-8.6 3.9-8.6 10.1v14.2c0 6.2 2.2 10.1 8.6 10.1a12.4 12.4 0 0 0 6-1.5V69.7H163a4.5 4.5 0 0 1 0-9h7.8c3.3 0 5.9 1.6 5.9 5ZM201.8 39.3c-13.5 0-18.7 8.6-18.7 18.9v14.2c0 10.5 6.3 18.9 18.7 18.9s18.7-8.4 18.7-18.9V58.2c0-10.3-5.2-18.9-18.7-18.9Zm8.6 33.1c0 5.8-2.7 9.8-8.6 9.8s-8.7-4-8.7-9.8V58.2c0-5.9 2.4-9.8 8.7-9.8s8.6 3.9 8.6 9.8ZM117.1 39.3c-13.5 0-18.8 8.6-18.8 18.9v14.2c0 10.5 6.4 18.9 18.8 18.9s18.7-8.4 18.7-18.9V58.2c0-10.3-5.2-18.9-18.7-18.9Zm8.6 33.1c0 5.8-2.7 9.8-8.6 9.8s-8.7-4-8.7-9.8V58.2c0-5.9 2.4-9.8 8.7-9.8s8.6 3.9 8.6 9.8ZM94.7 86.1a4.6 4.6 0 0 1-4.8 4.6H69.5a5.3 5.3 0 0 1-5.4-4.9V31.2L51.6 6.7a4.5 4.5 0 0 1-.4-2 5 5 0 0 1 5-4.7 4.9 4.9 0 0 1 4.1 2.2l8.8 17.6L78 2.2A4.6 4.6 0 0 1 82.1 0a5.1 5.1 0 0 1 5 4.7 6.5 6.5 0 0 1-.5 2L74.2 31.2v50.4h15.6a4.8 4.8 0 0 1 4.9 4.5Z"/>
  </symbol>

  <symbol viewBox="-143 145 512 512" id="instagram">
    <path d="M113 446c24.8 0 45.1-20.2 45.1-45.1 0-9.8-3.2-18.9-8.5-26.3-8.2-11.3-21.5-18.8-36.5-18.8s-28.3 7.4-36.5 18.8c-5.3 7.4-8.5 16.5-8.5 26.3C68 425.8 88.2 446 113 446zM211.4 345.9v-43.4h-5.6l-37.8.1.2 43.4z"/>
    <path d="M183 401c0 38.6-31.4 70-70 70s-70-31.4-70-70c0-9.3 1.9-18.2 5.2-26.3H10v104.8C10 493 21 504 34.5 504h157c13.5 0 24.5-11 24.5-24.5V374.7h-38.2c3.4 8.1 5.2 17 5.2 26.3z"/>
    <path d="M113 145c-141.4 0-256 114.6-256 256s114.6 256 256 256 256-114.6 256-256-114.6-256-256-256zm128 229.7v104.8c0 27.3-22.2 49.5-49.5 49.5h-157C7.2 529-15 506.8-15 479.5V322.4c0-27.3 22.2-49.5 49.5-49.5h157c27.3 0 49.5 22.2 49.5 49.5v52.3z"/>
  </symbol>

  <symbol viewBox="0 0 749.8 745.2" id="facebook">
    <path d="M749.8 374.9C749.8 167.8 582 0 374.9 0S0 167.9 0 374.9c0 186.4 136 341 314.1 370l2.2.3v-262h-95.2V374.8h95.2v-82.6c-.5-4.2-.7-9-.7-13.9 0-73.1 59.3-132.3 132.3-132.3 3.5 0 7 .1 10.5.4h-.5c30 .4 59 3.1 87.3 7.8l-3.3-.5V246h-47.3c-2.2-.3-4.6-.5-7.1-.5-29.9 0-54.2 24.3-54.2 54.2 0 1.7.1 3.4.2 5v-.2 70.3h104l-16.6 108.4h-87.4v261.9c180.3-29.3 316.3-183.9 316.3-370.2z"/>
  </symbol>

  <symbol viewBox="0 0 24 24" id="telegram">
    <path d="M12 0C5.373 0 0 5.373 0 12s5.373 12 12 12 12-5.373 12-12S18.627 0 12 0zm5.894 8.221-1.97 9.28c-.145.658-.537.818-1.084.508l-3-2.21-1.446 1.394a.759.759 0 0 1-.6.295h-.005l.213-3.054 5.56-5.022c.24-.213-.054-.334-.373-.121L8.32 13.617l-2.96-.924c-.64-.203-.658-.64.135-.954l11.566-4.458c.538-.196 1.006.128.832.941z"/>
  </symbol>

  <symbol viewBox="-143 145 512 512" id="youtube">
    <path d="m78.9 450.3 83.8-49.2-83.8-49.2z"/>
    <path d="M113 145c-141.4 0-256 114.6-256 256s114.6 256 256 256 256-114.6 256-256-114.6-256-256-256zm128 301.8c0 44.1-44.1 44.1-44.1 44.1H29.1c-44.1 0-44.1-44.1-44.1-44.1v-91.5c0-44.1 44.1-44.1 44.1-44.1h167.8c44.1 0 44.1 44.1 44.1 44.1v91.5z"/>
  </symbol>

</svg>

